# xmcd
#
# Track frame offsets:
#	150
#	16327
#	32464
#	45655
#	60926
#	77877
#	95625
#	110929
#	126284
#	141922
#	155502
#	169870
#	191248
#	205125
#	219809
#	238254
#	255281
#	271178
#	292566
#
# Disc length: 4152 seconds
#
# Revision: 1
# Processed by: cddbd v1.5.1PL2 Copyright (c) Steve Scherf et al.
# Submitted via: audiograbber 1.83.01
#
DISCID=08103613
DTITLE=Various Artist - Hott Country 123
DYEAR=2006
DGENRE=Country
TTITLE0=Rascal Flatts - Me And My Gang
TTITLE1=George Canyon - Somebody Wrote Love
TTITLE2=Gil Grand - Quit Teasin' Me
TTITLE3=Julie Roberts - Men And Mascara
TTITLE4=Van Zant - Things I Miss The Most
TTITLE5=Jake Mathews - Arizona On My Mind
TTITLE6=Craig Moritz - Lonely
TTITLE7=Sara Evans - Coalmine
TTITLE8=Wreckers - Leave The Pieces
TTITLE9=Ian Tyson - Always Saying Goodbye
TTITLE10=Joamey Johnson - Rebelicious ( Clean Radio Edit )
TTITLE11=Aaron Lines - 20 Years Late
TTITLE12=Damian Marshall - That's What Love Is 
TTITLE13=Trace Adkins - Swing
TTITLE14=Terri Clark - Slow News Day
TTITLE15=Miranda Lambert - New Strings
TTITLE16=Cindy Morgan - Mother ( Edit )
TTITLE17=Sugarland - Stand Back Up
TTITLE18=Ronnie Milsap - Lost In The Fifties Tonight
EXTD=May 2006
EXTT0=
EXTT1=
EXTT2=
EXTT3=
EXTT4=
EXTT5=
EXTT6=
EXTT7=
EXTT8=
EXTT9=
EXTT10=
EXTT11=
EXTT12=
EXTT13=
EXTT14=
EXTT15=
EXTT16=
EXTT17=
EXTT18=
PLAYORDER=
